PathFileType	4	(X/Y/Z)	C:\Users\Biomechanik\SynologyDrive\AlexP\Athlete_03\Athlete_3_25_03_31\Deadlift_35kg_01\marker_experimental.trc
DataRate	CameraRate	NumFrames	NumMarkers	Units	OrigDataRate	OrigDataStartFrame	OrigNumFrames
200.000000	200.000000	4	55	mm	200.000000	772	2060
Frame#	Time	BL			BR			GLAB			RFHD			LFHD			C7			T6			SPINMOL			SPINM2			SPINM3			T12			BELTOL			BELT2			BELT3			SACROL			SACR2			SACR3			LTHOL			LTH2			LTH3			LSHAOL			LSHA2			LSHA3			LHEE			LTOE			LM5			RTHOL			RTH2			RTH3			RSHAOL			RSHA2			RSHA3			RHEE			RTOE			RM5			STRN			XIPH			LACR			LUAOL			LUA2			LUA3			LLAOL			LLA2			LLA3			LWRR			LWRU			RACR			RUAOL			RUA2			RUA3			RLAOL			RLA2			RLA3			RWRR			RWRU			
		X1	Y1	Z1	X2	Y2	Z2	X3	Y3	Z3	X4	Y4	Z4	X5	Y5	Z5	X6	Y6	Z6	X7	Y7	Z7	X8	Y8	Z8	X9	Y9	Z9	X10	Y10	Z10	X11	Y11	Z11	X12	Y12	Z12	X13	Y13	Z13	X14	Y14	Z14	X15	Y15	Z15	X16	Y16	Z16	X17	Y17	Z17	X18	Y18	Z18	X19	Y19	Z19	X20	Y20	Z20	X21	Y21	Z21	X22	Y22	Z22	X23	Y23	Z23	X24	Y24	Z24	X25	Y25	Z25	X26	Y26	Z26	X27	Y27	Z27	X28	Y28	Z28	X29	Y29	Z29	X30	Y30	Z30	X31	Y31	Z31	X32	Y32	Z32	X33	Y33	Z33	X34	Y34	Z34	X35	Y35	Z35	X36	Y36	Z36	X37	Y37	Z37	X38	Y38	Z38	X39	Y39	Z39	X40	Y40	Z40	X41	Y41	Z41	X42	Y42	Z42	X43	Y43	Z43	X44	Y44	Z44	X45	Y45	Z45	X46	Y46	Z46	X47	Y47	Z47	X48	Y48	Z48	X49	Y49	Z49	X50	Y50	Z50	X51	Y51	Z51	X52	Y52	Z52	X53	Y53	Z53	X54	Y54	Z54	X55	Y55	Z55	

773	3.86	2237.48388671875	724.3439331054689	371.0958862304691	216.8094787597655	681.2111206054688	382.2243957519532	1189.23193359375	1621.27099609375	402.6548461914065	1125.785278320312	1643.248413085938	351.4478759765627	1261.178955078125	1643.639770507812	358.0595397949221	1201.822875976562	1447.484741210938	173.3727111816409	1210.640380859375	1274.48291015625	131.6735534667971	1233.95263671875	1243.108032226562	129.006546020508	1184.691284179688	1233.881225585938	124.292434692383	1220.373291015625	1178.301025390625	130.9240722656252	1219.096801757812	1128.924438476562	138.0257110595705	1234.3740234375	1106.96630859375	112.3525085449221	1184.223510742188	1102.825317382812	113.4475250244143	1214.584594726562	1044.798461914062	99.67405700683616	1240.2744140625	978.4138183593751	85.0099792480471	1189.0732421875	976.1945190429689	87.60411834716818	1215.577026367188	920.2215576171876	64.22569274902366	1401.802368164062	685.7983398437501	169.3149108886721	1372.387573242188	630.4620361328126	119.5784301757815	1388.754028320312	625.4356689453126	166.6627197265628	1397.146484375	325.6520080566407	156.9960632324221	1383.228637695312	261.5302429199219	111.800361633301	1391.310424804688	263.9512023925782	161.3955535888674	1308.132934570312	68.52167510986337	105.120658874512	1320.950805664062	47.32328414917	320.8938598632815	1421.682739257812	29.6969928741456	272.895446777344	1031.050659179688	698.2581176757814	157.3483886718752	1017.704833984375	642.6729736328126	213.011917114258	1036.623291015625	637.4775390625001	167.0061035156252	1024.275024414062	342.7676696777344	143.2725982666018	1023.123840332031	273.1599121093751	180.4231567382814	1035.846801757812	280.9909362792969	133.6116790771486	1125.016235351562	61.78710556030281	112.2612304687502	1100.383544921875	47.25997924804694	324.9878845214846	1003.094665527344	39.94801712036139	267.4624633789064	1207.357788085938	1365.334106445312	351.4606018066409	1209.240234375	1232.07958984375	397.3497619628909	1384.580688476562	1401.164916992188	266.3484191894534	1485.515014648438	1246.935668945312	310.8634338378909	1503.825439453125	1184.270751953125	316.8886718750003	1468.605224609375	1198.965454101562	352.2009887695315	1507.145385742188	982.3651733398439	360.864685058594	1510.327270507812	916.4686279296876	316.8797302246097	1509.091674804688	920.8889770507814	366.7507019042972	1509.3623046875	816.4235229492189	396.5878601074222	1433.519897460938	808.7472534179689	375.033142089844	1033.070556640625	1396.333129882812	282.489715576172	946.3277587890623	1237.843994140625	318.9736938476564	961.330139160156	1182.799560546875	353.6157531738283	926.5084838867185	1174.89111328125	314.8023071289064	937.167785644531	960.2037963867189	353.6960449218752	937.2058715820311	904.3651733398439	410.1972656250002	935.0866699218749	897.7926025390626	360.8877258300783	938.3010253906249	811.6432495117189	402.5514526367189	1010.537475585937	789.3082885742189	367.289520263672	
774	3.865	2237.45947265625	724.5305175781251	371.161529541016	216.7826690673827	681.1614379882812	382.4744873046876	1189.30712890625	1621.210571289062	400.6353759765627	1125.859375	1643.2666015625	349.4595642089846	1261.260131835938	1643.604248046875	356.0498657226565	1201.849731445312	1447.129638671875	171.5727386474612	1210.764526367188	1273.7841796875	130.7657470703127	1234.073974609375	1242.413818359375	128.2835693359377	1184.79541015625	1233.171508789062	123.6166839599612	1220.485229492188	1177.62255859375	130.6140289306643	1219.204833984375	1128.345336914062	138.018997192383	1234.488525390625	1106.265869140625	112.481025695801	1184.351318359375	1102.118774414062	113.5664367675783	1214.717651367188	1044.030029296875	100.1022262573244	1240.403564453125	977.8601074218751	85.70621490478538	1189.180908203125	975.6181640625001	88.30367279052756	1215.720947265625	919.6129150390626	65.04019165039085	1401.8828125	685.7785644531251	170.1262969970706	1372.49072265625	630.5395507812501	120.2729873657229	1388.822631835938	625.4199218750001	167.3733215332034	1397.151000976562	325.6467590332032	157.3498992919924	1383.301879882812	261.5716857910157	112.0679626464846	1391.316040039062	263.9491882324219	161.6748199462893	1308.099365234375	68.51885986328134	105.1435241699221	1320.941162109375	47.31126022338875	320.9031982421877	1421.680541992188	29.71888160705575	272.8824768066409	1031.104370117188	698.1781616210939	158.2808532714846	1017.771728515625	642.6070556640626	213.8961334228518	1036.66943359375	637.3917236328126	167.9048919677736	1024.270385742188	342.7976379394532	143.9645996093752	1023.204284667969	273.1182250976563	180.9861450195314	1035.806396484375	281.0386047363282	134.1508483886721	1125.064086914062	61.78933334350593	112.3031005859377	1100.383422851562	47.24724578857428	324.994079589844	1003.088500976562	39.95024108886725	267.4646911621095	1207.346435546875	1365.748168945312	350.0780334472659	1209.216430664062	1232.822509765625	396.7445983886721	1384.59423828125	1401.128662109375	264.6423034667971	1485.580688476562	1247.0869140625	309.7341918945315	1503.864013671875	1184.432250976562	315.9474792480472	1468.684326171875	1199.251220703125	351.2533874511722	1507.160400390625	982.6440429687501	360.5681762695315	1510.402221679688	916.6231689453126	316.7562561035159	1509.098510742188	921.1782836914064	366.6117858886722	1509.321044921875	816.7443847656251	396.6776123046878	1433.47265625	809.0700683593751	375.0354309082034	1032.955322265625	1396.412963867188	280.7593994140627	946.0928955078123	1237.980102539062	317.7724609375002	961.173645019531	1183.011352539062	352.5905761718752	926.4533081054685	1175.005493164062	313.7660217285158	937.1436767578123	960.3816528320314	353.3204650878908	937.1364135742186	904.7084350585939	409.9831848144533	935.0794067382811	897.9888916015626	360.6636962890627	938.3152465820311	811.9254150390626	402.5567626953127	1010.528442382812	789.5557250976564	367.2982177734377	
775	3.87	2237.43359375	724.6663818359376	371.2243957519535	216.7570343017577	681.0553588867188	382.7189636230469	1189.380249023438	1621.135375976562	398.6654968261721	1125.93115234375	1643.267700195312	347.5205078125002	1261.339599609375	1643.55078125	354.0879821777346	1201.87646484375	1446.767456054688	169.8224029541018	1210.885131835938	1273.093994140625	129.8842773437502	1234.190551757812	1241.72998046875	127.5765762329104	1184.896240234375	1232.4716796875	122.9573822021487	1220.592651367188	1176.95654296875	130.3057861328127	1219.309936523438	1127.771362304688	138.0038757324221	1234.599853515625	1105.57470703125	112.5970077514651	1184.47607421875	1101.420166015625	113.6750717163088	1214.84912109375	1043.273071289062	100.5138778686526	1240.519165039062	977.3019409179689	86.36148071289085	1189.2744140625	975.0352783203126	88.96450042724631	1215.855102539062	918.9913330078126	65.83475494384788	1401.946655273438	685.7669067382814	170.8781433105471	1372.568969726562	630.6181030273439	120.9179687500003	1388.8720703125	625.4091186523439	168.0356903076174	1397.147216796875	325.6396484375001	157.6722412109378	1383.351318359375	261.6086730957032	112.3122253417971	1391.314086914062	263.9458923339844	161.9282989501956	1308.064086914062	68.51309967041024	105.1643905639651	1320.931518554688	47.2994804382325	320.9114685058596	1421.67724609375	29.73911666870126	272.870056152344	1031.178100585938	698.1010131835939	159.1653442382814	1017.845336914062	642.5437622070314	214.7280273437502	1036.734497070312	637.3100585937501	168.7584533691408	1024.283081054688	342.8247985839844	144.6156005859377	1023.287292480469	273.0766906738282	181.5122222900393	1035.787109375	281.0809020996094	134.659622192383	1125.115966796875	61.78863525390632	112.3437347412112	1100.384521484375	47.23101425170905	324.9993591308596	1003.083984375	39.95336914062506	267.466766357422	1207.333251953125	1366.13330078125	348.7287292480471	1209.190185546875	1233.532104492188	396.1490783691409	1384.60205078125	1401.067993164062	262.9951782226565	1485.638427734375	1247.201782226562	308.6397705078128	1503.901000976562	1184.559204101562	315.0315551757815	1468.755493164062	1199.491088867188	350.3304748535159	1507.169921875	982.8811035156251	360.2704772949222	1510.46923828125	916.7409667968751	316.6260986328128	1509.098266601562	921.4252319335939	366.4665222167972	1509.271728515625	817.0231323242189	396.7543640136722	1433.417236328125	809.3477783203126	375.0232238769534	1032.835327148438	1396.460205078125	279.068817138672	945.8602905273435	1238.075317382812	316.589324951172	961.0190429687498	1183.178955078125	351.5749816894533	926.4000854492185	1175.078002929688	312.7363281250002	937.1214599609373	960.5155029296876	352.9355773925783	937.0738525390624	905.0070800781251	409.7597656250002	935.0758056640624	898.1400146484376	360.4247436523439	938.3333129882811	812.1598510742189	402.5422973632814	1010.526672363281	789.7552490234376	367.2878417968752	
776	3.875	2237.40673828125	724.7587890625001	371.2837524414066	216.7327728271484	680.8997192382812	382.9566040039063	1189.451049804688	1621.049438476562	396.7452392578127	1126.000366210938	1643.2548828125	345.6306457519534	1261.416381835938	1643.483520507812	352.1736755371096	1201.902587890625	1446.399780273438	168.1220855712893	1210.999267578125	1272.4130859375	129.0303649902346	1234.299926757812	1241.056884765625	126.8871307373049	1184.991455078125	1231.781982421875	122.3161468505862	1220.693359375	1176.303100585938	130.0013885498049	1219.410034179688	1127.204223632812	137.9831237792971	1234.705078125	1104.894653320312	112.7022857666018	1184.594970703125	1100.730834960938	113.7763900756838	1214.9765625	1042.529052734375	100.9110336303713	1240.617919921875	976.7446899414064	86.98323822021507	1189.351440429688	974.4509887695314	89.5935516357424	1215.976684570312	918.3646240234376	66.60926818847679	1401.996826171875	685.7648315429689	171.5723571777346	1372.625	630.7001342773439	121.5146026611331	1388.904907226562	625.4046630859376	168.6501464843753	1397.137084960938	325.6311645507814	157.9621276855471	1383.3798828125	261.6416015625001	112.5319671630862	1391.306762695312	263.9417419433594	162.1550292968753	1308.028442382812	68.50464630126962	105.1828536987307	1320.922241210938	47.28836822509773	320.9184570312502	1421.673095703125	29.75707054138192	272.858581542969	1031.267700195312	698.0307006835939	160.0006561279299	1017.924621582031	642.4840087890626	215.5054016113283	1036.815673828125	637.2360229492189	169.5626678466799	1024.312622070312	342.8497619628907	145.2122955322268	1023.367919921875	273.0366821289063	181.9894104003908	1035.7890625	281.1177368164063	135.1272735595705	1125.17041015625	61.78501892089851	112.382148742676	1100.386474609375	47.21156692504889	325.003601074219	1003.080688476562	39.95701217651374	267.4685058593752	1207.318969726562	1366.492309570312	347.413757324219	1209.162963867188	1234.211303710938	395.5646057128909	1384.606079101562	1400.986450195312	261.4056091308596	1485.690063476562	1247.282836914062	307.5774230957034	1503.937866210938	1184.653442382812	314.1380004882815	1468.821411132812	1199.689331054688	349.4300231933597	1507.174682617188	983.0798339843751	359.9696044921878	1510.52880859375	916.8252563476564	316.4876708984378	1509.091674804688	921.6332397460939	366.3136291503909	1509.215698242188	817.2634887695314	396.8171997070315	1433.3544921875	809.5841674804689	374.9970703125003	1032.712524414062	1396.47802734375	277.4197082519533	945.6325683593748	1238.132934570312	315.4253234863283	960.8684082031248	1183.305908203125	350.5710449218752	926.348205566406	1175.1123046875	311.7143859863283	937.100402832031	960.6094360351564	352.5423278808595	937.0170898437499	905.2635498046876	409.5262756347658	935.0748901367186	898.2501831054689	360.171844482422	938.3535766601561	812.3508300781251	402.5088195800783	1010.531433105469	789.9109497070314	367.259246826172	
